<?xml version="1.0" encoding="utf-8"?>
<!-- Generator: Adobe Illustrator 28.1.0, SVG Export Plug-In . SVG Version: 6.00 Build 0)  -->
<svg version="1.1" id="Layer_1" xmlns="http://www.w3.org/2000/svg" xmlns:xlink="http://www.w3.org/1999/xlink" x="0px" y="0px"
	 viewBox="0 0 974.9 813.3" style="enable-background:new 0 0 974.9 813.3;" xml:space="preserve">
<style type="text/css">
	.st0{fill:#EC292F;}
</style>
<g>
	<path class="st0" d="M155.2,202.7v2.4c-2.1,0.1-3.6,0.5-4.4,1.2c-0.9,0.6-1.3,1.6-1.3,3s0.4,3.2,1.2,5.7l18.3,55.7l-2.9,2.9
		l16.5-52.6l1.7,2.8l-19.4,62.9c-0.1,0-0.3,0-0.4,0c-0.1,0-0.3,0-0.4,0c-0.1,0-0.3,0-0.4,0c-0.1,0-0.3,0-0.4,0l-24.9-74.1
		c-1-3-2.3-5.1-3.9-6c-1.6-1-3-1.4-4.2-1.5v-2.4c1.6,0.1,3.6,0.1,5.8,0.2c2.3,0.1,4.5,0.1,6.8,0.1c2.6,0,5,0,7.2-0.1
		C152,202.8,153.8,202.7,155.2,202.7z M237.5,202.7v2.4c-1.5,0.3-3.1,1.2-5,2.7c-1.8,1.4-3.2,4-4.3,7.6L206,286.7
		c-0.1,0-0.3,0-0.4,0c-0.1,0-0.3,0-0.4,0s-0.3,0-0.4,0c-0.1,0-0.3,0-0.4,0l-24.9-74.1c-1-3-2.2-5.1-3.5-6s-2.5-1.4-3.6-1.5v-2.4
		c1.4,0.1,3.1,0.1,5.3,0.2c2.2,0.1,4.2,0.1,6.2,0.1c3,0,5.9,0,8.6-0.1c2.7-0.1,4.9-0.1,6.5-0.2v2.4c-2.4,0.1-4.2,0.3-5.6,0.8
		s-2.2,1.3-2.4,2.6c-0.2,1.3,0.2,3.6,1.1,6.6l17.5,54.3l-1.6,1.4l15.6-48.8c1.4-4.3,2.1-7.7,1.9-10c-0.1-2.4-1-4.1-2.7-5.1
		c-1.6-1-4.1-1.5-7.5-1.6v-2.4c2.3,0.1,4.6,0.1,6.9,0.2c2.4,0.1,4.5,0.1,6.6,0.1s3.8,0,5.1-0.1C235.2,202.8,236.3,202.7,237.5,202.7
		z"/>
	<path class="st0" d="M257.4,224v51c0,3.3,0.6,5.5,2.1,6.7c1.4,1.2,3.7,1.7,6.9,1.7v2.5c-1.3-0.1-3.3-0.2-6-0.3s-5.4-0.2-8.2-0.2
		c-2.7,0-5.4,0.1-8.1,0.2c-2.7,0.1-4.8,0.2-6.2,0.3v-2.5c3.2,0,5.5-0.5,6.9-1.7c1.4-1.2,2.1-3.5,2.1-6.7v-36.8
		c0-3.6-0.6-6.2-1.8-7.9c-1.3-1.7-3.6-2.5-7-2.5v-2.5c2.5,0.2,5,0.3,7.3,0.3c2.3,0,4.4-0.1,6.6-0.4C253.8,225,255.7,224.6,257.4,224
		z M251.4,195.9c2.1,0,3.8,0.8,5.3,2.3c1.5,1.5,2.3,3.2,2.3,5.3c0,2.1-0.8,3.8-2.3,5.3c-1.5,1.5-3.2,2.3-5.3,2.3
		c-2.1,0-3.8-0.8-5.3-2.3c-1.5-1.5-2.3-3.2-2.3-5.3c0-2.1,0.8-3.8,2.3-5.3C247.5,196.6,249.3,195.9,251.4,195.9z"/>
	<path class="st0" d="M311.9,223.7c3,0,5.5,0.4,7.5,1.2c2.1,0.8,3.7,1.8,5,3.3c1.5,1.6,2.6,3.6,3.1,5.9c0.6,2.4,1,5.5,1,9.5v31.4
		c0,3.3,0.6,5.5,2.1,6.7s3.7,1.7,6.9,1.7v2.5c-1.3-0.1-3.3-0.2-6.2-0.3c-2.7-0.1-5.4-0.2-8-0.2c-2.6,0-5.1,0.1-7.6,0.2
		c-2.5,0.1-4.3,0.2-5.6,0.3v-2.5c2.8,0,4.9-0.5,6-1.7s1.7-3.5,1.7-6.7V241c0-2.5-0.2-4.6-0.5-6.7c-0.4-2.1-1.3-3.7-2.7-5
		s-3.5-1.8-6.3-1.8c-3.3,0-6.2,1-8.6,2.8c-2.5,1.8-4.4,4.4-5.7,7.7c-1.4,3.2-2.1,6.9-2.1,10.9V275c0,3.3,0.5,5.5,1.7,6.7
		c1.2,1.2,3.1,1.7,6,1.7v2.5c-1.3-0.1-3.1-0.2-5.6-0.3s-5-0.2-7.6-0.2c-2.6,0-5.3,0.1-8,0.2s-4.8,0.2-6.2,0.3v-2.5
		c3.2,0,5.5-0.5,6.9-1.7c1.4-1.2,2.1-3.5,2.1-6.7v-36.8c0-3.6-0.6-6.2-1.8-7.9c-1.3-1.7-3.6-2.5-7-2.5v-2.5c2.5,0.2,5,0.3,7.3,0.3
		c2.3,0,4.4-0.1,6.6-0.4c2.1-0.3,4-0.6,5.7-1.2V238c2.1-5.3,4.9-9.1,8.5-11.1C304.2,224.7,307.9,223.7,311.9,223.7z"/>
	<path class="st0" d="M371.3,223.7c6.9,0,12.3,2.1,16.2,6.3c3.9,4.2,5.8,10.7,5.8,19.7h-41.6l-0.1-2.3H382c0.1-3.9-0.1-7.5-1-10.7
		c-0.8-3.2-2.1-5.8-3.7-7.9c-1.7-1.9-3.9-2.9-6.6-2.9c-3.6,0-6.8,1.8-9.6,5.4c-2.8,3.6-4.4,9.4-5,17.2l0.3,0.4
		c-0.1,1.2-0.3,2.5-0.3,3.9c-0.1,1.4-0.1,2.8-0.1,4.2c0,5.3,0.9,9.9,2.6,13.8s4,6.8,6.8,8.7c2.8,2.1,5.6,3,8.6,3
		c2.4,0,4.6-0.3,6.7-1.1c2.2-0.8,4.1-1.9,5.9-3.7c1.8-1.7,3.3-4,4.8-6.9l2.4,1c-0.9,2.6-2.3,5.1-4.2,7.6s-4.4,4.4-7.5,5.9
		s-6.5,2.3-10.4,2.3c-5.6,0-10.5-1.3-14.6-3.9c-4-2.6-7.1-6.2-9.3-10.8c-2.2-4.6-3.2-9.8-3.2-15.9c0-6.9,1.1-12.9,3.3-17.8
		c2.2-5,5.3-8.9,9.3-11.6C361.3,225,365.9,223.7,371.3,223.7z"/>
	<path class="st0" d="M413.7,272.5c1.7,0,3.1,0.3,4.2,1.1c1.1,0.8,2.1,1.6,2.7,2.7c0.9,1.3,1.4,2.6,1.6,4.1c0.2,1.5,0.3,2.7,0.3,3.7
		c0,3.9-1,7.3-2.9,10.5c-1.9,3.1-5.1,5.7-9.2,7.7l-1.1-2.2c2.5-1,4.5-2.6,6.3-4.9c1.7-2.2,2.7-4.4,2.7-6.7c0-1-0.1-1.7-0.3-2.5
		c-1.3,1-2.7,1.5-4.3,1.5c-2.1,0-3.8-0.6-5.3-2.1c-1.5-1.3-2.3-3.1-2.3-5.5c0-2.2,0.8-4,2.3-5.4
		C409.9,273.3,411.6,272.5,413.7,272.5z"/>
	<path class="st0" d="M460.6,191.1l1.6,1.5c-6.6,7.7-11.2,16.1-13.8,25.3c-2.6,9.2-3.9,19.7-3.9,31.4c0,11.8,1.3,22.2,3.9,31.4
		c2.6,9.2,7.2,17.6,13.8,25.3l-1.6,1.5c-7.9-7.2-14.3-15.7-18.9-25.4s-7-20.6-7-32.8s2.4-23.1,7-32.8
		C446.4,206.8,452.8,198.3,460.6,191.1z"/>
	<path class="st0" d="M472.7,246.7c0-6.7-0.1-12.5-0.4-17.8h9.1l0.3,11.2h0.4c2.6-7.7,8.9-12.5,15.8-12.5c1.2,0,2.1,0.1,2.9,0.3v9.7
		c-1.1-0.2-2.2-0.3-3.6-0.3c-7.3,0-12.5,5.5-13.9,13.3c-0.2,1.4-0.4,3-0.4,4.9v30.3h-10.3L472.7,246.7L472.7,246.7z"/>
	<path class="st0" d="M515.8,259.4c0.2,14,9.2,19.8,19.5,19.8c7.5,0,11.9-1.3,15.8-2.9l1.7,7.5c-3.7,1.6-9.9,3.6-19,3.6
		c-17.5,0-28-11.6-28-28.7s10.2-30.8,26.7-30.8c18.6,0,23.5,16.4,23.5,26.9c0,2.2-0.2,3.8-0.3,4.9L515.8,259.4L515.8,259.4z
		 M546.3,251.9c0.1-6.6-2.7-16.8-14.4-16.8c-10.5,0-15.1,9.6-15.9,16.8H546.3z"/>
	<path class="st0" d="M618.3,202.3v68.9c0,5.1,0.1,10.8,0.4,14.7h-9.3L609,276h-0.2c-3.1,6.4-10.2,11.2-19.4,11.2
		c-13.8,0-24.4-11.7-24.4-28.9c-0.1-18.9,11.7-30.6,25.6-30.6c8.7,0,14.6,4.1,17.2,8.7h0.2v-34.1H618.3z M607.9,252.2
		c0-1.3-0.1-3-0.4-4.3c-1.5-6.6-7.2-12-14.9-12c-10.7,0-17.1,9.4-17.1,22c0,11.6,5.6,21.1,16.8,21.1c6.9,0,13.3-4.6,15.2-12.3
		c0.3-1.4,0.4-2.8,0.4-4.4L607.9,252.2L607.9,252.2z"/>
	<path class="st0" d="M631.1,191.1c7.9,7.2,14.3,15.7,18.9,25.4c4.6,9.7,7,20.6,7,32.8s-2.4,23.1-7,32.8c-4.6,9.7-11,18.1-18.9,25.4
		l-1.6-1.5c6.6-7.7,11.2-16.1,13.8-25.3c2.6-9.2,3.9-19.7,3.9-31.4c0-11.8-1.3-22.2-3.9-31.4c-2.6-9.2-7.2-17.6-13.8-25.3
		L631.1,191.1z"/>
	<path class="st0" d="M254.7,326.8v2.4c-2.7,0.1-4.6,0.4-6,1.2s-2.3,1.8-2.8,3.5c-0.4,1.6-0.8,3.8-0.8,6.7V376
		c0,5.5-0.3,10.3-1.1,14.4s-1.9,7.7-3.8,10.6c-1.9,3.3-4.9,5.9-8.6,8s-8.1,3-13,3c-3.8,0-7.3-0.4-10.8-1.4c-3.5-1-6.4-2.6-9-5
		c-2.3-2.2-4.1-4.5-5.4-6.9c-1.3-2.5-2.2-5.4-2.7-9c-0.4-3.6-0.8-8-0.8-13.3v-36.9c0-2.9-0.2-5.1-0.8-6.4c-0.4-1.4-1.4-2.3-2.8-2.8
		c-1.4-0.5-3.3-0.8-6-0.9v-2.4c1.6,0.1,3.8,0.1,6.5,0.2c2.7,0.1,5.5,0.1,8.6,0.1c2.7,0,5.5,0,8.2-0.1c2.7-0.1,5-0.1,6.8-0.2v2.4
		c-2.7,0.1-4.6,0.3-6,0.9c-1.4,0.5-2.3,1.4-2.8,2.8c-0.4,1.4-0.8,3.6-0.8,6.4v39c0,4,0.2,7.8,0.5,11.3c0.4,3.6,1.2,6.7,2.4,9.4
		c1.2,2.7,3.1,4.9,5.6,6.4c2.5,1.5,5.8,2.3,10,2.3c5.9,0,10.6-1.3,13.8-4c3.2-2.6,5.5-6.3,6.8-10.9c1.3-4.6,1.9-9.8,1.9-15.7v-36.7
		c0-2.9-0.3-5.2-1-6.7c-0.6-1.6-1.8-2.7-3.3-3.5c-1.6-0.8-3.7-1.1-6.4-1.2v-2.4c1.4,0.1,3.2,0.1,5.6,0.2c2.3,0.1,4.4,0.1,6.4,0.1
		c2.1,0,4.1,0,6-0.1C251.9,327,253.5,326.8,254.7,326.8z"/>
	<path class="st0" d="M299.1,347.9c3,0,5.5,0.4,7.5,1.2c1.9,0.8,3.7,1.8,5,3.3c1.5,1.6,2.6,3.6,3.1,5.9c0.6,2.4,1,5.5,1,9.5v31.4
		c0,3.3,0.6,5.5,2.1,6.7s3.7,1.7,6.9,1.7v2.5c-1.3-0.1-3.3-0.2-6.2-0.3c-2.7-0.1-5.4-0.2-8-0.2s-5.1,0.1-7.6,0.2
		c-2.5,0.1-4.3,0.2-5.6,0.3v-2.5c2.8,0,4.9-0.5,6-1.7c1.2-1.2,1.7-3.5,1.7-6.7v-34c0-2.5-0.2-4.6-0.5-6.7c-0.4-2.1-1.3-3.7-2.7-5
		s-3.5-1.8-6.3-1.8c-3.3,0-6.2,1-8.6,2.8c-2.5,1.8-4.4,4.4-5.7,7.7c-1.4,3.2-2.1,6.9-2.1,10.9v26.1c0,3.3,0.5,5.5,1.7,6.7
		c1.2,1.2,3.1,1.7,6,1.7v2.5c-1.3-0.1-3.1-0.2-5.6-0.3c-2.5-0.1-5-0.2-7.6-0.2s-5.3,0.1-8,0.2c-2.7,0.1-4.8,0.2-6.2,0.3v-2.5
		c3.2,0,5.5-0.5,6.9-1.7c1.4-1.2,2.1-3.5,2.1-6.7v-36.8c0-3.6-0.6-6.2-1.8-7.8c-1.3-1.7-3.6-2.5-7-2.5v-2.5c2.5,0.2,5,0.3,7.3,0.3
		c2.3,0,4.4-0.1,6.6-0.4c2.1-0.3,4-0.6,5.7-1.2v13.9c2.1-5.3,4.9-9.1,8.5-11.1C291.3,348.9,295.1,347.9,299.1,347.9z"/>
	<path class="st0" d="M349.4,348.2v51c0,3.3,0.6,5.5,2.1,6.7s3.7,1.7,6.9,1.7v2.5c-1.3-0.1-3.3-0.2-6-0.3c-2.7-0.1-5.4-0.2-8.2-0.2
		c-2.7,0-5.4,0.1-8.1,0.2c-2.7,0.1-4.8,0.2-6.2,0.3v-2.5c3.2,0,5.5-0.5,6.9-1.7c1.4-1.2,2.1-3.5,2.1-6.7v-36.8
		c0-3.6-0.6-6.2-1.8-7.8c-1.3-1.7-3.6-2.5-7-2.5v-2.5c2.5,0.2,5,0.3,7.3,0.3c2.3,0,4.4-0.1,6.6-0.4
		C345.7,349.2,347.7,348.8,349.4,348.2z M343.3,320c2.1,0,3.8,0.8,5.3,2.3c1.5,1.5,2.3,3.2,2.3,5.3s-0.8,3.8-2.3,5.3
		s-3.2,2.3-5.3,2.3c-2.1,0-3.8-0.8-5.3-2.3s-2.3-3.2-2.3-5.3s0.8-3.8,2.3-5.3C339.5,320.8,341.2,320,343.3,320z"/>
	<path class="st0" d="M391.6,347.9c4.9,0,8.7,1.1,11.8,3.1c3,2.1,5.3,5.5,6.9,10.3l-2.4-1.3c-1.5-3.2-3.6-5.6-6.3-7.1
		c-2.7-1.5-5.7-2.3-9.2-2.3c-4.6,0-8.2,2.4-10.8,7.2c-2.6,4.8-3.9,12.2-3.9,22.1c0,6.3,0.6,11.6,1.8,15.8c1.3,4.2,3.1,7.5,5.5,9.5
		c2.5,2.1,5.4,3.1,8.9,3.1c3.3,0,6.3-1.6,9.1-4.9c2.7-3.2,4.3-8,4.9-14.3l1.4,1.6c-0.5,6.7-2.6,11.9-6,15.4
		c-3.5,3.7-7.7,5.5-12.6,5.5c-4.4,0-8.5-1.2-12.2-3.5c-3.7-2.3-6.6-5.8-8.7-10.6c-2.2-4.8-3.2-10.7-3.2-17.8
		c0-7.1,1.1-13.1,3.3-17.8c2.3-4.8,5.3-8.3,9.1-10.7S387,347.9,391.6,347.9z M416.6,347.6l2.1,0.9c-0.3,1-0.5,2.2-0.6,3.3
		c-0.1,1.2-0.2,2.4-0.2,3.6v66.4c0,2.8,0.5,4.8,1.7,5.7c1.2,1,3.1,1.5,6,1.5v2.5c-1.3-0.1-3-0.2-5.4-0.3c-2.4-0.1-4.8-0.2-7.3-0.2
		c-3.3,0-6.6,0.1-9.7,0.2s-5.5,0.2-7.2,0.3V429c3.6,0,6.3-0.5,8.3-1.7c2.1-1.2,3-3.3,3-6.8v-63c1.1-1.1,2.2-2.2,3.1-3.3
		c1-1.1,2.1-2.2,3.1-3.3C414.5,349.9,415.6,348.8,416.6,347.6z"/>
	<path class="st0" d="M484.1,348.2v49.2c0,3.6,0.6,6.2,1.9,7.9c1.3,1.7,3.7,2.5,7,2.5v2.5c-2.5-0.2-4.9-0.3-7.3-0.3
		c-2.3,0-4.4,0.1-6.6,0.3c-2.1,0.2-4,0.6-5.7,1.3v-13.9c-1.9,5.1-4.8,8.7-8.3,10.9c-3.6,2.2-7.2,3.2-11,3.2c-2.7,0-5.2-0.4-7.2-1.2
		c-2.1-0.8-3.8-1.8-5.1-3.3c-1.5-1.6-2.5-3.6-3-6.2c-0.5-2.5-0.9-5.6-0.9-9.3v-29.6c0-3.6-0.6-6.2-1.8-7.8c-1.3-1.7-3.6-2.5-7-2.5
		v-2.5c2.5,0.2,5,0.3,7.3,0.3c2.3,0,4.4-0.1,6.6-0.4c2.1-0.3,4-0.6,5.7-1.2v46.2c0,2.5,0.1,4.6,0.4,6.7c0.3,2.1,1.1,3.7,2.4,5
		s3.3,1.8,6.2,1.8c3,0,5.8-1,8.2-2.8c2.4-1.8,4.3-4.4,5.6-7.7c1.4-3.2,2.1-6.8,2.1-10.8v-24.4c0-3.6-0.6-6.2-1.8-7.8
		c-1.3-1.7-3.6-2.5-7-2.5v-2.5c2.5,0.2,5,0.3,7.3,0.3c2.3,0,4.4-0.1,6.6-0.4C480.4,349.2,482.3,348.8,484.1,348.2z"/>
	<path class="st0" d="M527.6,347.9c6.9,0,12.3,2.1,16.2,6.3c3.9,4.2,5.8,10.7,5.8,19.7h-41.6l-0.1-2.3h30.3c0.1-3.9-0.1-7.5-1-10.7
		c-0.8-3.2-2.1-5.8-3.7-7.9c-1.7-1.9-3.9-2.9-6.6-2.9c-3.6,0-6.8,1.8-9.6,5.4c-2.8,3.6-4.4,9.4-5,17.2l0.3,0.4
		c-0.1,1.2-0.3,2.5-0.3,3.9c-0.1,1.4-0.1,2.8-0.1,4.2c0,5.3,0.9,9.9,2.6,13.8c1.7,3.9,4,6.8,6.8,8.7c2.8,2.1,5.6,3,8.6,3
		c2.4,0,4.6-0.3,6.7-1.1c2.2-0.8,4.1-1.9,5.9-3.7c1.8-1.7,3.3-4,4.8-6.9l2.4,1c-0.9,2.6-2.3,5.1-4.2,7.6c-1.9,2.5-4.4,4.4-7.5,5.9
		s-6.5,2.3-10.4,2.3c-5.6,0-10.5-1.3-14.6-3.9c-4-2.6-7.1-6.2-9.3-10.8c-2.2-4.6-3.2-9.8-3.2-15.9c0-6.9,1.1-12.9,3.3-17.8
		c2.2-5,5.3-8.9,9.3-11.6C517.7,349.2,522.3,347.9,527.6,347.9z"/>
	<path class="st0" d="M570,396.7c1.7,0,3.1,0.3,4.2,1.1c1.1,0.8,2.1,1.6,2.7,2.7c0.9,1.3,1.4,2.6,1.6,4.1c0.2,1.5,0.3,2.7,0.3,3.7
		c0,3.9-1,7.3-2.9,10.5s-5.1,5.7-9.2,7.7l-1.1-2.2c2.5-1,4.5-2.6,6.3-4.9c1.7-2.2,2.7-4.4,2.7-6.7c0-1-0.1-1.7-0.3-2.5
		c-1.3,1-2.7,1.5-4.3,1.5c-2.1,0-3.8-0.6-5.3-2.1c-1.5-1.3-2.3-3.1-2.3-5.5c0-2.2,0.8-4,2.3-5.4C566.3,397.5,568,396.7,570,396.7z"
		/>
	<path class="st0" d="M100.2,455v33.2h38.4V455H149v79.4h-10.4v-37.3h-38.4v37.3H89.9V455H100.2z"/>
	<path class="st0" d="M172.1,507.7c0.2,14,9.2,19.8,19.5,19.8c7.5,0,11.9-1.3,15.8-2.9l1.7,7.5c-3.7,1.6-9.9,3.6-19,3.6
		c-17.5,0-28-11.6-28-28.7s10.2-30.8,26.7-30.8c18.6,0,23.5,16.4,23.5,26.9c0,2.2-0.2,3.8-0.3,4.9L172.1,507.7L172.1,507.7z
		 M202.5,500.3c0.1-6.6-2.7-16.8-14.4-16.8c-10.5,0-15.1,9.6-15.9,16.8H202.5z"/>
	<path class="st0" d="M225.3,495.1c0-6.7-0.1-12.5-0.4-17.8h9.1l0.3,11.2h0.4c2.6-7.7,8.9-12.5,15.8-12.5c1.2,0,2.1,0.1,2.9,0.3v9.7
		c-1.1-0.2-2.2-0.3-3.6-0.3c-7.3,0-12.5,5.5-13.9,13.3c-0.2,1.4-0.4,3-0.4,4.9v30.3h-10.3L225.3,495.1L225.3,495.1z"/>
	<path class="st0" d="M390.3,505.4c0,21.1-14.6,30.2-28.4,30.2c-15.4,0-27.3-11.3-27.3-29.3c0-19.1,12.5-30.2,28.3-30.2
		C379.2,476.1,390.3,488,390.3,505.4z M345.1,506c0,12.5,7.2,21.9,17.3,21.9c9.9,0,17.3-9.3,17.3-22.1c0-9.6-4.9-21.9-17.1-21.9
		C350.4,483.9,345.1,495.1,345.1,506z"/>
	<path class="st0" d="M403.4,492.8c0-5.9-0.1-10.7-0.4-15.4h9.2l0.5,9.4h0.2c2.8-5.4,9.4-10.7,18.8-10.7c7.9,0,20.1,4.8,20.1,24.3
		v34h-10.4v-32.8c0-9.2-3.5-16.8-13.2-16.8c-6.8,0-12.1,4.9-13.9,10.6c-0.4,1.3-0.8,3-0.8,4.9v34.2h-10.4v-41.6H403.4z"/>
	<path class="st0" d="M480.3,461.3c0.1,3.6-2.5,6.4-6.6,6.4c-3.7,0-6.3-2.8-6.3-6.4c0-3.7,2.7-6.5,6.5-6.5
		C477.8,454.9,480.3,457.7,480.3,461.3z M468.7,534.3v-57h10.4v57H468.7z"/>
	<path class="st0" d="M547.8,505.4c0,21.1-14.6,30.2-28.4,30.2c-15.4,0-27.3-11.3-27.3-29.3c0-19.1,12.5-30.2,28.3-30.2
		C536.8,476.1,547.8,488,547.8,505.4z M502.7,506c0,12.5,7.2,21.9,17.3,21.9c9.9,0,17.3-9.3,17.3-22.1c0-9.6-4.9-21.9-17.1-21.9
		C507.9,483.9,502.7,495.1,502.7,506z"/>
	<path class="st0" d="M608.6,518.9c0,5.9,0.1,11,0.4,15.6h-9.2l-0.5-9.3h-0.2c-2.7,4.6-8.7,10.6-18.8,10.6c-9,0-19.7-5-19.7-24.9
		v-33.4H571v31.5c0,10.8,3.3,18.1,12.7,18.1c6.9,0,11.8-4.9,13.6-9.4c0.5-1.5,1-3.5,1-5.3v-35h10.4L608.6,518.9L608.6,518.9z"/>
	<path class="st0" d="M624.4,523.7c3,2.1,8.4,4.1,13.6,4.1c7.6,0,11-3.8,11-8.4c0-5-2.9-7.7-10.6-10.5c-10.3-3.7-15.1-9.3-15.1-16.1
		c0-9.2,7.5-16.7,19.7-16.7c5.7,0,10.8,1.6,14,3.6l-2.6,7.6c-2.3-1.4-6.4-3.3-11.7-3.3c-6.2,0-9.5,3.6-9.5,7.8
		c0,4.8,3.5,6.8,10.8,9.6c9.9,3.8,14.9,8.7,14.9,17.2c0,10-7.8,17.1-21.3,17.1c-6.3,0-12-1.5-16-3.9L624.4,523.7z"/>
	<path class="st0" d="M664.4,548.9c2.6-6.9,5.7-19.5,7-28.2l11.6-1.2c-2.7,10-7.9,23.1-11.2,28.6L664.4,548.9z"/>
</g>
<g>
	<path class="st0" d="M286.9,498.4c0-7.3-4.1-13-9.7-13c-5.9,0-11.9,7.3-11.9,22.6c0,11.2,4,21.4,9.4,26.7v0.3H265
		c-5.1-4.3-9.7-14.3-9.7-27.3c0-21.2,10.7-31,21.6-31c6.9,0,12.5,3.9,14.8,10.2h0.4c2.7-6.3,8.1-10.2,15.1-10.2
		c9.9,0,20.8,8.3,20.8,30c0,12.9-5,23.3-10,28.3h-9.5v-0.3c5.3-5.6,9.4-15.6,9.4-27.6c0-15.9-6.7-21.7-12.1-21.7
		c-5.3,0-9.4,5.7-9.4,12.9l0.2,21.8h-9.7L286.9,498.4z"/>
</g>
</svg>
