<?xml version="1.0" encoding="utf-8"?>
<!-- Generator: Adobe Illustrator 28.1.0, SVG Export Plug-In . SVG Version: 6.00 Build 0)  -->
<svg version="1.1" id="Layer_1" xmlns="http://www.w3.org/2000/svg" xmlns:xlink="http://www.w3.org/1999/xlink" x="0px" y="0px"
	 viewBox="0 0 839.2 870.9" style="enable-background:new 0 0 839.2 870.9;" xml:space="preserve">
<style type="text/css">
	.st0{fill:#EC292F;}
</style>
<g>
	<g>
		<path class="st0" d="M10.8,156c1.5,0.1,3.5,0.1,5.9,0.2s4.8,0.1,7.2,0.1c3.3,0,6.6,0,9.6-0.1c3.1-0.1,5.2-0.1,6.5-0.1
			c5.8,0,10.6,0.8,14.4,2.5s6.7,3.9,8.5,6.8c1.9,2.9,2.8,6.1,2.8,9.6c0,2.2-0.4,4.5-1.3,7s-2.3,4.8-4.4,7c-2.1,2.2-5,4-8.6,5.4
			c-3.6,1.4-8.2,2.1-13.8,2.1H27.3v-2.2h9.2c5.1,0,8.9-0.8,11.6-2.5c2.7-1.6,4.5-3.8,5.4-6.5c1-2.7,1.4-5.8,1.4-9.1
			c0-5.7-1.3-10.2-4-13.4s-7.2-4.7-13.7-4.7c-3.3,0-5.4,0.6-6.4,1.9c-1,1.2-1.5,3.7-1.5,7.5v54.1c0,2.6,0.2,4.6,0.6,5.9
			s1.3,2.2,2.5,2.6c1.2,0.4,3.1,0.7,5.5,0.9v2.2c-1.6-0.1-3.7-0.2-6.1-0.3c-2.5,0-4.9-0.1-7.4-0.1c-2.8,0-5.4,0-7.8,0.1
			c-2.4,0-4.4,0.1-5.9,0.3V231c2.4-0.1,4.3-0.4,5.5-0.9c1.2-0.4,2.1-1.3,2.5-2.6c0.4-1.3,0.6-3.3,0.6-5.9v-54.1
			c0-2.7-0.2-4.7-0.6-5.9c-0.4-1.3-1.3-2.1-2.5-2.6s-3.1-0.7-5.5-0.8L10.8,156L10.8,156z M27.8,194.7c3.8,0.1,6.9,0.3,9.1,0.5
			s4,0.3,5.4,0.5c1.4,0.1,2.7,0.3,4,0.5c4.8,0.8,8.2,2.3,10.3,4.4c2.1,2.1,3.6,5.5,4.6,10l2.7,11.1c0.7,3.2,1.4,5.5,2.2,6.9
			c0.7,1.4,1.9,2.1,3.5,2c1.2-0.1,2.2-0.5,3-1.2s1.7-1.7,2.6-2.9l1.6,1.2c-1.5,2.3-3,4-4.6,5.2s-3.9,1.8-6.8,1.8
			c-2.6,0-5-0.8-6.9-2.4c-2-1.6-3.5-4.7-4.5-9.4L51.6,212c-0.6-3.1-1.4-5.8-2.2-8.1s-2-4.1-3.4-5.4c-1.5-1.3-3.6-2-6.5-2H28
			L27.8,194.7z"/>
		<path class="st0" d="M104.9,175.5c4.6,0,8.7,1,12.3,3.1c3.6,2,6.5,5.2,8.7,9.6c2.2,4.4,3.3,10,3.3,17s-1.1,12.6-3.3,17
			c-2.2,4.3-5.1,7.5-8.7,9.5s-7.7,3.1-12.3,3.1c-4.5,0-8.6-1-12.2-3.1c-3.7-2-6.6-5.2-8.8-9.5s-3.3-10-3.3-17s1.1-12.6,3.3-17
			c2.2-4.4,5.1-7.6,8.8-9.6C96.3,176.5,100.4,175.5,104.9,175.5z M104.9,177.6c-4.1,0-7.4,2.1-10,6.4S91,195.3,91,205
			c0,9.7,1.3,16.7,3.9,21s5.9,6.4,10,6.4s7.4-2.1,10-6.4s3.9-11.2,3.9-21c0-9.7-1.3-16.8-3.9-21
			C112.2,179.8,108.9,177.6,104.9,177.6z"/>
		<path class="st0" d="M172.5,175.5c2.5,0,4.7,0.4,6.5,1.1c1.9,0.7,3.4,1.7,4.6,3.1c1.4,1.5,2.3,3.3,2.8,5.7
			c0.5,2.3,0.7,5.2,0.7,8.6v29.1c0,3.1,0.6,5.1,1.9,6.2c1.2,1.1,3.3,1.6,6.2,1.6v2.3c-1.2-0.1-3.1-0.2-5.6-0.3s-4.9-0.2-7.3-0.2
			s-4.6,0.1-6.9,0.2c-2.3,0.1-3.9,0.2-5.1,0.3v-2.3c2.6,0,4.4-0.5,5.4-1.6c1.1-1.1,1.6-3.2,1.6-6.2v-31.6c0-2.3-0.1-4.3-0.4-6.2
			c-0.3-1.9-1-3.4-2.1-4.6s-3-1.7-5.6-1.7c-2.8,0-5.3,0.9-7.4,2.6c-2.2,1.7-3.9,4.1-5.1,7.1s-1.9,6.4-1.9,10.1V223
			c0,3.1,0.5,5.1,1.6,6.2c1.1,1.1,2.9,1.6,5.4,1.6v2.3c-1.1-0.1-2.8-0.2-5.1-0.3c-2.2-0.1-4.5-0.2-6.9-0.2s-4.8,0.1-7.3,0.2
			c-2.5,0.1-4.3,0.2-5.6,0.3v-2.3c2.9,0,5-0.5,6.3-1.6c1.2-1.1,1.9-3.2,1.9-6.2v-34.1c0-3.3-0.6-5.7-1.7-7.3
			c-1.1-1.6-3.3-2.3-6.4-2.3V177c2.3,0.2,4.5,0.3,6.6,0.3s4-0.1,5.9-0.4s3.6-0.6,5.2-1.1v12.9c1.9-4.7,4.4-8.1,7.6-10.1
			C165.8,176.5,169.1,175.5,172.5,175.5z M204.7,175.5c2.5,0,4.7,0.4,6.5,1.1c1.9,0.7,3.4,1.7,4.6,3.1c1.4,1.5,2.3,3.3,2.8,5.7
			c0.5,2.3,0.7,5.2,0.7,8.6v29.1c0,3.1,0.6,5.1,1.9,6.2c1.2,1.1,3.3,1.6,6.2,1.6v2.3c-1.2-0.1-3.1-0.2-5.6-0.3s-4.9-0.2-7.3-0.2
			s-4.6,0.1-6.9,0.2c-2.2,0.1-3.9,0.2-5.1,0.3v-2.3c2.6,0,4.4-0.5,5.4-1.6c1.1-1.1,1.6-3.2,1.6-6.2v-31.6c0-2.3-0.1-4.3-0.4-6.2
			c-0.3-1.9-1-3.4-2.1-4.6s-3-1.7-5.6-1.7c-2.8,0-5.3,0.9-7.4,2.6c-2.2,1.7-3.9,4.1-5.1,7.1s-1.9,6.3-1.9,10l-0.3-10.1
			c1.9-5,4.5-8.4,7.8-10.3C197.9,176.4,201.2,175.5,204.7,175.5z"/>
		<path class="st0" d="M247.3,233.9c-2.9,0-5.4-0.6-7.6-1.7c-2.2-1.1-3.8-2.7-4.9-4.7s-1.7-4.4-1.7-7.1c0-3.2,0.7-5.8,2.2-7.9
			c1.5-2,3.3-3.7,5.6-4.9c2.3-1.2,4.7-2.3,7.2-3.1s4.9-1.6,7.2-2.4s4.1-1.7,5.6-2.7s2.2-2.4,2.2-4v-6.8c0-3.1-0.4-5.4-1.3-7
			c-0.9-1.6-2.1-2.7-3.6-3.2s-3.2-0.8-5-0.8s-3.7,0.3-5.7,0.8s-3.7,1.6-4.9,3.2c1.4,0.3,2.5,1,3.5,2.2s1.5,2.7,1.5,4.5
			s-0.6,3.3-1.7,4.3c-1.1,1.1-2.6,1.6-4.4,1.6c-2.1,0-3.6-0.7-4.5-2c-1-1.3-1.4-2.9-1.4-4.5c0-1.9,0.5-3.4,1.4-4.6s2.1-2.3,3.5-3.3
			c1.6-1.2,3.8-2.2,6.4-3s5.5-1.3,8.8-1.3c2.9,0,5.4,0.3,7.5,1s3.8,1.7,5.1,3c1.9,1.7,3.1,3.9,3.6,6.4c0.6,2.5,0.9,5.5,0.9,9v30.3
			c0,1.8,0.3,3.1,0.8,3.9s1.4,1.2,2.5,1.2c0.8,0,1.5-0.2,2.2-0.5c0.7-0.4,1.6-0.9,2.6-1.7l1.2,1.9c-1.5,1.2-2.9,2.1-4.3,2.9
			s-3.2,1.1-5.4,1.1c-2.1,0-3.8-0.4-5.1-1.1c-1.4-0.7-2.4-1.8-3-3.2c-0.7-1.4-1-3.2-1-5.4c-1.9,3.3-4.2,5.7-6.9,7.3
			C253.6,233.1,250.6,233.9,247.3,233.9z M251.1,229.5c2.4,0,4.5-0.7,6.6-2.1c2-1.4,3.9-3.5,5.5-6.2v-21.4c-0.9,1.2-2.1,2.3-3.7,3.1
			s-3.4,1.7-5.3,2.5s-3.8,1.8-5.5,2.9c-1.7,1.1-3.2,2.6-4.3,4.4s-1.7,4.2-1.7,7.1c0,2.9,0.8,5.2,2.3,7
			C246.4,228.7,248.5,229.5,251.1,229.5z"/>
		<path class="st0" d="M321.2,175.5c2.7,0,5,0.4,6.8,1.1s3.3,1.7,4.5,3.1c1.4,1.5,2.3,3.3,2.9,5.5c0.6,2.2,0.9,5.1,0.9,8.8v29.1
			c0,3.1,0.6,5.1,1.9,6.2c1.2,1.1,3.3,1.6,6.2,1.6v2.3c-1.2-0.1-3.1-0.2-5.6-0.3s-4.9-0.2-7.3-0.2s-4.6,0.1-6.9,0.2
			c-2.3,0.1-3.9,0.2-5.1,0.3v-2.3c2.6,0,4.4-0.5,5.4-1.6c1.1-1.1,1.6-3.2,1.6-6.2v-31.6c0-2.3-0.2-4.3-0.5-6.2
			c-0.4-1.9-1.2-3.4-2.4-4.6c-1.2-1.2-3.2-1.7-5.7-1.7c-3,0-5.6,0.9-7.9,2.6c-2.2,1.7-4,4.1-5.2,7.1s-1.9,6.4-1.9,10.1V223
			c0,3.1,0.5,5.1,1.6,6.2c1.1,1.1,2.9,1.6,5.4,1.6v2.3c-1.1-0.1-2.8-0.2-5.1-0.3c-2.2-0.1-4.5-0.2-6.9-0.2s-4.8,0.1-7.3,0.2
			c-2.5,0.1-4.3,0.2-5.6,0.3v-2.3c2.9,0,5-0.5,6.3-1.6c1.2-1.1,1.9-3.2,1.9-6.2v-34.1c0-3.3-0.6-5.7-1.7-7.3
			c-1.1-1.6-3.3-2.3-6.4-2.3V177c2.3,0.2,4.5,0.3,6.6,0.3s4-0.1,5.9-0.4s3.6-0.6,5.2-1.1v12.9c1.9-4.9,4.4-8.4,7.7-10.3
			C314.1,176.4,317.6,175.5,321.2,175.5z"/>
		<path class="st0" d="M366.3,158.9v18.2h15.8v2.2h-15.8v42.2c0,3.4,0.6,5.8,1.8,7.2c1.2,1.4,2.9,2.1,5,2.1s4-0.9,5.6-2.7
			c1.6-1.8,2.9-4.8,4.1-9l2.1,0.5c-0.7,4.2-2.1,7.8-4.2,10.7s-5.3,4.4-9.7,4.4c-2.4,0-4.4-0.3-6-0.9c-1.6-0.6-3-1.5-4.2-2.7
			c-1.6-1.7-2.7-3.7-3.3-6c-0.6-2.3-0.9-5.4-0.9-9.3v-36.5h-10.3v-2.2h10.3v-16.7c1.8-0.1,3.5-0.2,5.1-0.4
			C363.5,159.8,365,159.4,366.3,158.9z"/>
		<path class="st0" d="M404.7,175.8V223c0,3.1,0.6,5.1,1.9,6.2c1.2,1.1,3.3,1.6,6.3,1.6v2.3c-1.2-0.1-3-0.2-5.5-0.3
			s-4.9-0.2-7.4-0.2c-2.4,0-4.9,0.1-7.4,0.2c-2.5,0.1-4.3,0.2-5.6,0.3v-2.3c2.9,0,5-0.5,6.3-1.6c1.2-1.1,1.9-3.2,1.9-6.2v-34.1
			c0-3.3-0.6-5.7-1.7-7.3c-1.1-1.6-3.3-2.3-6.4-2.3V177c2.3,0.2,4.5,0.3,6.6,0.3s4-0.1,5.9-0.4C401.4,176.7,403.1,176.3,404.7,175.8
			z M399.1,149.7c1.9,0,3.5,0.7,4.8,2.1c1.4,1.4,2,3,2,4.9c0,1.9-0.7,3.5-2,4.9c-1.4,1.4-3,2.1-4.8,2.1c-1.9,0-3.5-0.7-4.8-2.1
			c-1.4-1.4-2-3-2-4.9c0-1.9,0.7-3.5,2-4.9C395.7,150.4,397.3,149.7,399.1,149.7z"/>
		<path class="st0" d="M444.9,175.5c2.3,0,4.5,0.3,6.6,0.9s4.1,1.5,5.8,2.6c1.6,1.1,2.9,2.3,3.7,3.8s1.3,3,1.3,4.6
			c0,2-0.5,3.5-1.6,4.5c-1.1,1.1-2.4,1.6-4.1,1.6c-1.6,0-2.9-0.5-4.1-1.4c-1.2-0.9-1.8-2.3-1.8-4s0.4-3,1.3-4s1.9-1.7,3.2-2
			c-0.7-1.3-2-2.4-3.8-3.3s-3.8-1.3-5.8-1.3c-1.8,0-3.6,0.4-5.3,1.3c-1.8,0.9-3.4,2.3-4.9,4.3s-2.7,4.7-3.6,8.2s-1.4,7.8-1.4,12.9
			c0,6.4,0.7,11.5,2.1,15.3s3.3,6.5,5.6,8.1c2.3,1.6,4.9,2.5,7.6,2.5c1.9,0,3.7-0.4,5.7-1.1c1.9-0.7,3.7-1.9,5.4-3.5
			c1.7-1.6,3.2-3.8,4.4-6.6l2,0.8c-0.7,2.3-1.9,4.7-3.5,7c-1.6,2.4-3.8,4.3-6.4,5.8s-5.9,2.3-9.7,2.3c-4.4,0-8.4-1.2-12-3.5
			s-6.4-5.6-8.5-10c-2.1-4.3-3.2-9.5-3.2-15.4c0-6,1-11.2,3.2-15.8c2.1-4.5,5-8.1,8.8-10.7C435.8,176.8,440.1,175.5,444.9,175.5z"/>
		<path class="st0" d="M480.8,220.7c1.6,0,2.9,0.3,3.9,1s1.9,1.5,2.5,2.5c0.8,1.2,1.3,2.4,1.5,3.8c0.2,1.4,0.3,2.5,0.3,3.4
			c0,3.6-0.9,6.8-2.7,9.7s-4.7,5.3-8.5,7.1l-1-2c2.3-0.9,4.2-2.4,5.8-4.5c1.6-2,2.5-4.1,2.5-6.2c0-0.9-0.1-1.6-0.3-2.3
			c-1.2,0.9-2.5,1.4-4,1.4c-1.9,0-3.5-0.6-4.9-1.9c-1.4-1.2-2.1-2.9-2.1-5.1c0-2,0.7-3.7,2.1-5C477.3,221.4,478.9,220.7,480.8,220.7
			z"/>
		<path class="st0" d="M503.8,159.7h9.5v65.5h31.4v8h-40.9L503.8,159.7L503.8,159.7z"/>
		<path class="st0" d="M601.2,206.3c0,19.5-13.5,28-26.3,28c-14.3,0-25.3-10.5-25.3-27.1c0-17.7,11.6-28,26.2-28
			C590.9,179.2,601.2,190.2,601.2,206.3z M559.3,206.9c0,11.6,6.7,20.3,16,20.3c9.2,0,16-8.6,16-20.5c0-8.9-4.5-20.3-15.8-20.3
			S559.3,196.8,559.3,206.9z"/>
		<path class="st0" d="M616.2,180.4l10.4,29.7c1.7,4.8,3.2,9.2,4.3,13.5h0.3c1.2-4.4,2.7-8.7,4.5-13.5l10.2-29.7h10l-20.7,52.8H626
			l-20-52.8C606,180.4,616.2,180.4,616.2,180.4z"/>
		<path class="st0" d="M669.2,208.5c0.2,13,8.5,18.3,18.1,18.3c6.9,0,11-1.2,14.6-2.7l1.6,6.9c-3.4,1.5-9.2,3.3-17.6,3.3
			c-16.2,0-25.9-10.7-25.9-26.6s9.4-28.5,24.7-28.5c17.2,0,21.8,15.2,21.8,24.9c0,2-0.2,3.5-0.3,4.5h-37L669.2,208.5L669.2,208.5z
			 M697.3,201.6c0.1-6.1-2.5-15.6-13.3-15.6c-9.7,0-14,8.9-14.7,15.6H697.3z"/>
		<path class="st0" d="M711,246.6c2.4-6.4,5.3-18.1,6.5-26.1l10.7-1.1c-2.5,9.3-7.3,21.4-10.4,26.5L711,246.6z"/>
		<path class="st0" d="M179.7,260.3l1.5,1.4c-6.1,7.1-10.4,14.9-12.8,23.4s-3.6,18.2-3.6,29.1c0,10.9,1.2,20.6,3.6,29.1
			s6.7,16.3,12.8,23.4l-1.5,1.4c-7.3-6.7-13.2-14.5-17.5-23.5s-6.5-19.1-6.5-30.4c0-11.3,2.2-21.4,6.5-30.4S172.3,267,179.7,260.3z"
			/>
		<path class="st0" d="M245.5,271c-0.3,2.5-0.5,5-0.6,7.4s-0.2,4.2-0.2,5.5c0,1.3,0,2.6,0.1,3.8c0.1,1.2,0.1,2.2,0.2,3h-2.5
			c-0.4-4.3-1.1-7.7-1.9-10.2s-2.2-4.3-4.1-5.3c-1.9-1.1-4.8-1.6-8.7-1.6h-9c-2.5,0-4.3,0.2-5.6,0.6s-2.1,1.2-2.6,2.5
			c-0.4,1.3-0.7,3.3-0.7,5.9v54.1c0,2.6,0.2,4.6,0.7,5.9c0.4,1.3,1.3,2.2,2.6,2.6c1.3,0.4,3.1,0.6,5.6,0.6h8c4.6,0,8-0.6,10.4-1.9
			c2.4-1.2,4.1-3.3,5.1-6.1c1.1-2.8,1.8-6.6,2.3-11.4h2.5c-0.2,2-0.3,4.6-0.3,7.9c0,1.4,0.1,3.4,0.2,5.9c0.1,2.6,0.3,5.3,0.6,8
			c-3.7-0.1-7.9-0.2-12.5-0.3c-4.7,0-8.8-0.1-12.4-0.1c-1.6,0-3.7,0-6.2,0s-5.2,0-8.1,0.1c-2.9,0-5.9,0.1-8.8,0.1
			c-3,0-5.8,0.1-8.5,0.2V346c2.5-0.1,4.3-0.4,5.6-0.9c1.3-0.4,2.1-1.3,2.6-2.6c0.4-1.3,0.7-3.3,0.7-5.9v-54.1c0-2.7-0.2-4.7-0.7-5.9
			c-0.4-1.3-1.3-2.1-2.6-2.6s-3.1-0.7-5.6-0.8V271c2.7,0.1,5.5,0.1,8.5,0.2c3,0,5.9,0.1,8.8,0.1s5.6,0.1,8.1,0.1s4.6,0,6.2,0
			c3.3,0,7.1,0,11.4-0.1S242.2,271.1,245.5,271z M226.8,308.2v2.2h-20v-2.2H226.8z M229.9,293.8c-0.3,4.1-0.4,7.3-0.4,9.5
			c0,2.2,0.1,4.2,0.1,6c0,1.8,0,3.8,0.1,6c0.1,2.2,0.3,5.3,0.5,9.5h-2.5c-0.3-2.3-0.6-4.6-1-6.8c-0.4-2.2-1.3-4-2.6-5.5
			c-1.3-1.4-3.6-2.1-6.8-2.1v-2.2c2.4,0,4.2-0.5,5.5-1.5s2.2-2.2,2.8-3.8c0.6-1.5,1-3.1,1.2-4.7s0.4-3.1,0.7-4.4H229.9z"/>
		<path class="st0" d="M279,319.7c0.3,0.9,0.6,1.9,1,2.9l-9,11.8c-1.9,2.5-2.9,4.5-3,6.2c-0.1,1.7,0.6,2.9,2,3.8
			c1.5,0.8,3.5,1.4,6,1.6v2.2c-1.2-0.1-2.6-0.1-4.1-0.2c-1.5,0-3-0.1-4.4-0.1s-2.7-0.1-3.9-0.1c-1.7,0-3.2,0-4.5,0.1
			c-1.3,0-2.6,0.1-3.8,0.3V346c1.4-0.1,2.8-0.8,4.3-1.9c1.5-1.1,3.3-3,5.3-5.7L279,319.7z M276.1,292v2.3c-1.4,0-2.5,0.3-3.5,1
			c-0.9,0.7-1.1,1.6-0.3,2.7l29.1,42.4c1.2,1.8,2.3,3.1,3.3,3.9c0.9,0.8,2.1,1.3,3.5,1.6v2.3c-0.7-0.1-1.8-0.2-3.3-0.3
			s-3-0.2-4.4-0.2c-2.3,0-4.7,0.1-7.2,0.2c-2.6,0.1-4.5,0.2-5.6,0.3v-2.3c1.5,0,2.7-0.3,3.6-1c0.9-0.7,1-1.6,0.2-2.7l-29.1-42.4
			c-1.5-2.1-2.6-3.5-3.5-4.2c-0.9-0.7-2-1.1-3.3-1.3V292c0.7,0.1,1.9,0.2,3.4,0.3s3,0.2,4.4,0.2c2.3,0,4.8-0.1,7.3-0.2
			C273,292.2,274.9,292.1,276.1,292z M305.9,292v2.2c-1.4,0.1-2.9,0.9-4.5,2.1c-1.6,1.3-3.3,3.1-5.1,5.5l-12.5,17.3
			c-0.3-0.9-0.6-1.9-0.9-2.8l8.5-11.9c1.6-2.3,2.6-4.1,3.1-5.6c0.4-1.5,0.2-2.6-0.7-3.3c-0.9-0.8-2.7-1.2-5.3-1.4v-2.2
			c1.9,0.1,3.5,0.1,4.7,0.2c1.3,0.1,2.7,0.1,4.4,0.1c1.7,0,3.2,0,4.5-0.1C303.5,292.1,304.8,292.1,305.9,292z"/>
		<path class="st0" d="M338.1,290.5c2.3,0,4.6,0.3,6.8,0.9c2.2,0.6,4.1,1.5,5.9,2.6c1.7,1.1,2.9,2.3,3.8,3.8c0.9,1.4,1.3,3,1.3,4.6
			c0,2-0.5,3.5-1.6,4.5c-1.1,1.1-2.5,1.6-4.1,1.6s-3-0.5-4.2-1.4s-1.8-2.3-1.8-4c0-1.7,0.5-3,1.4-4s2-1.7,3.2-2
			c-0.7-1.3-2-2.4-3.9-3.3s-3.8-1.3-5.9-1.3c-1.8,0-3.6,0.4-5.5,1.3c-1.8,0.9-3.5,2.3-5,4.3s-2.8,4.7-3.7,8.2
			c-0.9,3.5-1.4,7.8-1.4,12.9c0,6.4,0.7,11.5,2.2,15.3c1.5,3.8,3.4,6.5,5.7,8.1c2.4,1.6,5,2.5,7.8,2.5c1.9,0,3.8-0.4,5.8-1.1
			c2-0.7,3.8-1.9,5.6-3.5c1.7-1.6,3.2-3.8,4.5-6.6l2.1,0.8c-0.7,2.3-1.9,4.7-3.6,7c-1.7,2.4-3.9,4.3-6.5,5.8c-2.7,1.5-6,2.3-9.9,2.3
			c-4.5,0-8.6-1.2-12.2-3.5c-3.6-2.3-6.5-5.7-8.7-10c-2.1-4.3-3.2-9.5-3.2-15.4c0-6,1.1-11.2,3.2-15.8c2.1-4.5,5.1-8.1,9-10.7
			C328.8,291.8,333.2,290.5,338.1,290.5z"/>
		<path class="st0" d="M381.9,290.8V338c0,3.1,0.6,5.1,1.9,6.2c1.3,1.1,3.4,1.6,6.4,1.6v2.3c-1.2-0.1-3.1-0.2-5.6-0.3
			s-5-0.2-7.6-0.2c-2.5,0-5,0.1-7.5,0.2c-2.5,0.1-4.4,0.2-5.7,0.3v-2.3c3,0,5.1-0.5,6.4-1.6s1.9-3.2,1.9-6.2v-34.1
			c0-3.3-0.6-5.7-1.7-7.2c-1.2-1.6-3.3-2.3-6.5-2.3v-2.3c2.3,0.2,4.6,0.3,6.8,0.3c2.1,0,4.1-0.1,6.1-0.4
			C378.6,291.7,380.3,291.3,381.9,290.8z M376.3,264.7c1.9,0,3.5,0.7,4.9,2.1s2.1,3,2.1,4.9s-0.7,3.5-2.1,4.9s-3,2.1-4.9,2.1
			s-3.5-0.7-4.9-2.1c-1.4-1.4-2.1-3-2.1-4.9s0.7-3.5,2.1-4.9C372.7,265.4,374.4,264.7,376.3,264.7z"/>
		<path class="st0" d="M413.3,273.9v18.2h16.1v2.2h-16.1v42.2c0,3.4,0.6,5.8,1.9,7.2c1.2,1.4,2.9,2.1,5.1,2.1s4.1-0.9,5.7-2.7
			c1.6-1.8,3-4.8,4.1-9l2.2,0.5c-0.7,4.2-2.2,7.8-4.3,10.7c-2.1,2.9-5.4,4.4-9.9,4.4c-2.5,0-4.5-0.3-6.1-0.9c-1.6-0.6-3-1.5-4.3-2.7
			c-1.6-1.7-2.7-3.7-3.3-6c-0.6-2.3-0.9-5.4-0.9-9.3v-36.5H393v-2.2h10.5v-16.7c1.8-0.1,3.6-0.2,5.2-0.4
			C410.4,274.8,411.9,274.4,413.3,273.9z"/>
		<path class="st0" d="M460.9,290.5c6.4,0,11.4,1.9,15,5.8s5.4,9.9,5.4,18.2h-38.5l-0.1-2.1h28.1c0.1-3.6-0.1-6.9-0.9-9.9
			c-0.7-3-1.9-5.4-3.4-7.3c-1.6-1.8-3.6-2.7-6.1-2.7c-3.3,0-6.3,1.7-8.9,5c-2.6,3.3-4.1,8.7-4.6,15.9l0.3,0.4
			c-0.1,1.1-0.3,2.3-0.3,3.6c-0.1,1.3-0.1,2.6-0.1,3.9c0,4.9,0.8,9.2,2.4,12.8s3.7,6.3,6.3,8.1c2.6,1.9,5.2,2.8,8,2.8
			c2.2,0,4.3-0.3,6.2-1c2-0.7,3.8-1.8,5.5-3.4c1.7-1.6,3.1-3.7,4.4-6.4l2.2,0.9c-0.8,2.4-2.1,4.7-3.9,7c-1.8,2.3-4.1,4.1-6.9,5.5
			s-6,2.1-9.6,2.1c-5.2,0-9.7-1.2-13.5-3.6c-3.7-2.4-6.6-5.7-8.6-10c-2-4.3-3-9.1-3-14.7c0-6.4,1-11.9,3.1-16.5
			c2-4.6,4.9-8.2,8.6-10.7C451.6,291.7,455.9,290.5,460.9,290.5z"/>
		<path class="st0" d="M516.3,290.5c3.2,0,6.2,0.8,9,2.3s4.7,4.1,5.6,7.8l-1.4,1.1c-1-3.1-2.6-5.3-4.7-6.7s-4.7-2.1-7.6-2.1
			c-4.3,0-7.9,2.2-10.7,6.7c-2.9,4.4-4.3,11.3-4.2,20.5c0,5.9,0.6,10.8,1.7,14.7s2.8,6.8,5,8.7s4.9,2.9,8.1,2.9
			c3.1,0,5.8-1.3,8.3-3.9c2.5-2.6,4-6.5,4.5-11.6l1.3,1.5c-0.6,5.5-2.3,9.8-5.3,12.8c-2.9,3-6.9,4.5-11.9,4.5
			c-4.5,0-8.4-1.1-11.8-3.3c-3.4-2.2-6-5.5-7.7-9.8c-1.8-4.4-2.7-9.8-2.7-16.5c0-6.6,1.1-12.1,3.4-16.5s5.3-7.7,9-9.9
			C507.8,291.6,511.9,290.5,516.3,290.5z M539.1,262.7v73.6c0,3.3,0.6,5.7,1.8,7.2c1.2,1.6,3.4,2.3,6.5,2.3v2.3
			c-2.3-0.2-4.5-0.3-6.8-0.3c-2.1,0-4.1,0.1-6.1,0.3c-1.9,0.2-3.7,0.6-5.3,1.2v-73.6c0-3.3-0.6-5.7-1.7-7.2
			c-1.2-1.6-3.3-2.3-6.5-2.3v-2.3c2.3,0.2,4.6,0.3,6.8,0.3c2.1,0,4.1-0.1,6.1-0.4C535.8,263.6,537.5,263.2,539.1,262.7z"/>
		<path class="st0" d="M558.4,260.3c7.3,6.7,13.2,14.5,17.5,23.5s6.5,19.1,6.5,30.4c0,11.3-2.2,21.4-6.5,30.4s-10.2,16.8-17.5,23.5
			l-1.5-1.4c6.1-7.1,10.4-14.9,12.8-23.4s3.6-18.2,3.6-29.1c0-10.9-1.2-20.6-3.6-29.1s-6.7-16.3-12.8-23.4L558.4,260.3z"/>
		<path class="st0" d="M133.7,463.1l-24-73.5h10.2l11.4,36.2c3.2,9.9,5.9,18.9,7.8,27.5h0.2c2.1-8.5,5.1-17.8,8.4-27.4l12.4-36.3
			h10.1l-26.3,73.5L133.7,463.1L133.7,463.1z"/>
		<path class="st0" d="M187,395.5c0.1,3.3-2.3,5.9-6.1,5.9c-3.4,0-5.8-2.6-5.8-5.9c0-3.4,2.5-6,6-6C184.8,389.6,187,392.2,187,395.5
			z M176.4,463.1v-52.8h9.6v52.8H176.4z"/>
		<path class="st0" d="M201.4,463.1c0.2-3.6,0.4-8.9,0.4-13.6v-63.8h9.5v33.1h0.2c3.4-5.9,9.5-9.7,18-9.7
			c13.1,0,22.4,10.9,22.2,26.9c0,18.9-11.9,28.2-23.7,28.2c-7.6,0-13.7-2.9-17.7-9.9H210l-0.4,8.7L201.4,463.1L201.4,463.1z
			 M211.4,442c0,1.2,0.2,2.4,0.4,3.5c1.9,6.7,7.4,11.2,14.4,11.2c10,0,16-8.2,16-20.3c0-10.6-5.5-19.6-15.7-19.6
			c-6.5,0-12.6,4.5-14.6,11.8c-0.2,1.1-0.5,2.4-0.5,3.9L211.4,442L211.4,442z"/>
		<path class="st0" d="M269.3,438.5c0.2,13,8.5,18.3,18.1,18.3c6.9,0,11-1.2,14.6-2.7l1.6,6.9c-3.4,1.5-9.2,3.3-17.6,3.3
			c-16.2,0-25.9-10.7-25.9-26.6s9.4-28.5,24.7-28.5c17.2,0,21.8,15.2,21.8,24.9c0,2-0.2,3.5-0.3,4.5L269.3,438.5L269.3,438.5z
			 M297.4,431.6c0.1-6.1-2.5-15.6-13.3-15.6c-9.7,0-14,8.9-14.7,15.6H297.4z"/>
		<path class="st0" d="M335.4,476.6c2.4-6.4,5.3-18.1,6.5-26.1l10.7-1.1c-2.5,9.3-7.3,21.4-10.4,26.5L335.4,476.6z"/>
		<path class="st0" d="M429,397.4c-2.6,0-5-0.3-7.1-0.9c-2.1-0.6-4.2-1.3-6.2-2.1c-2-0.8-4.1-1.5-6.2-2.1s-4.6-0.9-7.2-0.9
			c-2.5,0-4.3,0.6-5.5,1.9s-1.7,3-1.6,5.3c0.1,2.2,0.8,3.9,2.2,5.2c1.4,1.3,3.4,2.2,5.8,2.7l-0.3,2.2c-1.9-0.4-3.7-1-5.6-1.9
			c-1.8-0.9-3.3-2.2-4.5-4c-1.2-1.7-1.8-4-1.9-6.8c-0.1-3.9,0.9-7,3.2-9.6c2.3-2.5,5.4-3.8,9.5-3.8c2.4,0,4.6,0.4,6.5,1.2
			c1.9,0.8,3.7,1.8,5.5,2.9c1.7,1.1,3.4,2.3,5.1,3.4c1.7,1.2,3.5,2.1,5.3,2.9c1.9,0.8,4,1.2,6.3,1.2c3.7,0,7-0.5,9.8-1.4
			s6-2.1,9.5-3.5c1.5-2.3,3-4.1,4.5-5.3c1.5-1.2,2.7-1.4,3.8-0.4c0.9,0.7,0.8,1.7-0.1,2.9c-0.9,1.2-3.3,2.6-7.2,4
			c-6.2,4.1-11.3,9.6-15.3,16.4s-7.1,14.4-9.3,22.8l-6.8,26.4c-1.2,4.9-3,9.5-5.3,13.7s-5.1,7.5-8.5,10.1c-3.4,2.5-7.4,3.8-11.9,3.8
			c-2.1,0-4-0.2-5.7-0.7c-1.7-0.4-3-1.1-3.9-2s-1.5-2-1.5-3.3c-0.1-1.6,0.5-3.1,1.6-4.4s2.6-2,4.4-2c1.3,0,2.4,0.4,3.2,1.3
			c0.8,0.8,1.3,1.9,1.4,3.1c0.1,1.3-0.3,2.5-1.2,3.4c-0.9,1-1.9,1.8-3.2,2.3c0.5,0.1,1.1,0.3,1.7,0.4c0.7,0.1,1.3,0.2,2.1,0.2
			c3,0,5.5-1,7.4-2.9c2-2,3.6-4.6,4.9-7.9s2.5-7,3.5-11.1c1.1-4.1,2.1-8.3,3.2-12.6l3.3-12.8c1.4-5.5,3.2-10.3,5.5-14.5
			s4.9-8,7.8-11.4s6.2-6.5,9.6-9.4c3.5-2.9,7.2-5.7,11-8.4c-1.7,0.9-3.5,1.7-5.3,2.5c-1.8,0.8-3.6,1.5-5.5,2.1
			c-1.8,0.6-3.6,1.1-5.5,1.4C432.5,397.2,430.7,397.4,429,397.4z M440.5,423.2l-0.3,2.2h-35l0.3-2.2H440.5z"/>
		<path class="st0" d="M453.5,438.5c0-4.8,0.7-9.7,2.1-14.8c1.4-5.1,3.4-10,6-14.6c2.6-4.7,5.8-8.8,9.5-12.5s7.9-6.7,12.6-8.8
			c4.7-2.2,9.7-3.3,15.3-3.3c8.1,0,14.4,2.3,18.9,6.8s6.8,11,6.8,19.5c0,4.8-0.7,9.7-2.1,14.8c-1.4,5.1-3.4,9.9-6.1,14.6
			c-2.6,4.7-5.8,8.8-9.5,12.5s-8,6.7-12.6,8.8c-4.7,2.2-9.8,3.3-15.2,3.3c-8.1,0-14.4-2.3-18.9-6.8
			C455.8,453.3,453.5,446.9,453.5,438.5z M498,386.4c-3.3,0-6.6,1-9.9,3c-3.2,2-6.2,4.8-9,8.3c-2.8,3.5-5.2,7.6-7.3,12.1
			s-3.8,9.4-5,14.6S465,434.8,465,440c0,7.1,1.4,12.7,4.2,16.7s6.4,6.1,10.8,6.1c3.3,0,6.6-1,9.9-3c3.2-2,6.2-4.8,9-8.3
			s5.2-7.6,7.3-12.1s3.8-9.4,5-14.6c1.2-5.2,1.8-10.4,1.8-15.6c0-7.1-1.4-12.7-4.2-16.7C506,388.4,502.4,386.4,498,386.4z"/>
		<path class="st0" d="M602.1,386.7c-1.2,0.1-2.2,0.3-3.2,0.8c-1,0.4-1.9,1-2.8,1.6c-2.4,1.7-5.2,4.5-8.3,8.1
			c-3.1,3.7-6.4,8.5-9.7,14.4c-3.3,6-6.6,13.3-9.8,22l-6.4,0.5c-0.3-3.3-0.7-7-1.1-10.9c-0.5-3.9-1-7.8-1.7-11.7
			c-0.7-3.9-1.5-7.4-2.5-10.6s-2.1-5.8-3.5-7.7c-1.3-1.9-2.9-2.9-4.7-2.9c-1.2,0-2.3,0.4-3.1,1.1c-0.8,0.8-1.5,2.1-2.1,4l-3.1,8.9
			h-2.4l3.6-10.6c1.1-3.2,2.4-5.6,3.8-7.1c1.5-1.6,3.7-2.3,6.9-2.3c4,0,7.2,1.6,9.5,4.9c2.3,3.2,4.1,7.8,5.5,13.7
			c1.3,5.9,2.4,12.9,3.3,20.9c2.8-7,5.9-13.2,9.4-18.6s7.2-10,11-13.8c1.7-1.7,3.7-3.3,5.9-4.8c2.3-1.5,4.6-2.3,6.9-2.3
			c2.5,0,4.1,0.7,5,2c0.9,1.3,1.2,2.8,1.1,4.4c-0.1,1.5-0.6,3-1.7,4.6s-2.6,2.4-4.7,2.4c-1.7,0-2.8-0.5-3.4-1.5s-0.8-2.1-0.8-3.2
			c0.1-1.2,0.4-2.3,1.1-3.4c0.7-1.1,1.5-2.1,2.4-3c-0.1,0-0.1,0-0.2,0C602.2,386.7,602.2,386.7,602.1,386.7z M564.8,451.6
			c-0.7,2.6-0.9,4.6-0.8,5.9s0.7,2.2,1.9,2.6c1.1,0.4,2.9,0.7,5.4,0.9l-0.5,2.2c-1.1-0.1-2.4-0.1-3.8-0.2c-1.5,0-3-0.1-4.7-0.1
			s-3.3-0.1-5-0.1c-2.8,0-5.5,0-8.1,0.1c-2.5,0-4.6,0.1-6.2,0.3l0.5-2.2c2.5-0.1,4.4-0.4,5.8-0.9c1.4-0.4,2.5-1.3,3.3-2.6
			c0.8-1.3,1.5-3.3,2.2-5.9l7.5-29.9l3.8,6.9l3.6-2.1l3.7-8.7L564.8,451.6z"/>
		<path class="st0" d="M600.9,459.1c0-2.2,0.8-4.1,2.5-5.8c1.7-1.7,3.5-2.6,5.6-2.6c1.7,0,3,0.5,4,1.6s1.5,2.4,1.5,4
			c0,1.5-0.4,2.8-1.1,4.1c-0.8,1.3-1.8,2.3-3,3.1c-1.2,0.8-2.6,1.1-4,1.1c-1.6,0-2.9-0.5-3.9-1.6C601.4,462,600.9,460.7,600.9,459.1
			z M610.4,441.4c2-7.7,3.7-15.3,5-22.8s2.5-14.4,3.5-20.8c1-6.4,2.1-11.6,3.2-15.8c0.2-0.7,0.5-1.3,0.8-1.8s0.7-1,1.1-1.4
			s0.9-0.6,1.4-0.8c0.5-0.2,1.1-0.3,1.6-0.3c2.3,0,3.7,0.7,4.4,2.1c0.7,1.4,0.7,2.9,0.2,4.7c-0.8,2.9-2,6.4-3.5,10.5
			s-3.2,8.7-5.1,13.7s-3.7,10.3-5.6,15.9s-3.5,11.2-5.1,17.1L610.4,441.4z"/>
	</g>
	<g>
		<circle class="st0" cx="633.1" cy="719.8" r="11.7"/>
		<g>
			<path class="st0" d="M652.5,711.4h3.2l3,11.4h0.1l3-11.4h3.2l3,11.3h0.2l3-11.3h3.1l-4.5,15.5h-3.1l-3.1-11.2h-0.2l-3.1,11.2
				h-3.1L652.5,711.4z"/>
			<path class="st0" d="M677.5,708.8c-0.3-0.2-0.5-0.4-0.7-0.7s-0.3-0.6-0.3-0.9c0-0.3,0.1-0.6,0.3-0.9s0.4-0.5,0.7-0.7
				s0.6-0.2,1-0.2s0.7,0.1,1,0.2c0.3,0.2,0.5,0.4,0.7,0.7s0.2,0.6,0.2,0.9c0,0.3-0.1,0.6-0.2,0.9s-0.4,0.5-0.7,0.7s-0.6,0.2-1,0.2
				S677.8,708.9,677.5,708.8z M676.9,711.4h3v15.5h-3V711.4z"/>
			<path class="st0" d="M686.7,726.9h-3v-15.5h2.9v2.5h0.2c0.4-0.9,1-1.5,1.7-2c0.8-0.5,1.7-0.7,2.9-0.7c1.1,0,2,0.2,2.8,0.7
				c0.8,0.4,1.4,1.1,1.8,2s0.7,1.9,0.7,3.2v9.9h-3v-9.5c0-0.7-0.1-1.4-0.4-1.9s-0.6-0.9-1.1-1.2s-1.1-0.4-1.8-0.4s-1.3,0.2-1.9,0.5
				c-0.5,0.3-1,0.7-1.3,1.3s-0.5,1.3-0.5,2.1L686.7,726.9L686.7,726.9z"/>
			<path class="st0" d="M703.2,726.3c-1.1-0.7-2-1.6-2.6-2.8s-0.9-2.6-0.9-4.2c0-1.6,0.3-3,0.9-4.2s1.4-2.2,2.5-2.8
				c1.1-0.7,2.3-1,3.8-1c1.3,0,2.4,0.3,3.4,0.8s1.9,1.4,2.5,2.6c0.6,1.2,0.9,2.6,0.9,4.4v1.1h-12.4v-2.3h9.4c0-0.8-0.2-1.5-0.5-2.1
				s-0.8-1.1-1.4-1.5s-1.3-0.5-2-0.5c-0.8,0-1.6,0.2-2.2,0.6c-0.6,0.4-1.1,0.9-1.5,1.6c-0.4,0.7-0.5,1.4-0.5,2.2v1.8
				c0,1,0.2,1.9,0.6,2.6s0.9,1.3,1.5,1.7c0.7,0.4,1.4,0.6,2.3,0.6c0.6,0,1.1-0.1,1.5-0.2c0.4-0.2,0.8-0.4,1.1-0.6
				c0.3-0.2,0.6-0.5,0.7-0.9h3.1c-0.2,0.8-0.6,1.6-1.2,2.2c-0.6,0.6-1.3,1.1-2.2,1.5s-1.9,0.5-3,0.5
				C705.6,727.3,704.3,726.9,703.2,726.3z"/>
		</g>
	</g>
</g>
</svg>
