<?xml version="1.0" encoding="utf-8"?>
<!-- Generator: Adobe Illustrator 28.1.0, SVG Export Plug-In . SVG Version: 6.00 Build 0)  -->
<svg version="1.1" id="Layer_1" xmlns="http://www.w3.org/2000/svg" xmlns:xlink="http://www.w3.org/1999/xlink" x="0px" y="0px"
	 viewBox="0 0 1248.5 581" style="enable-background:new 0 0 1248.5 581;" xml:space="preserve">
<style type="text/css">
	.st0{display:none;fill:#FFFFFF;}
	.st1{fill:#EC292F;}
	.st2{font-family:'Pistilli';}
	.st3{font-size:299.786px;}
</style>
<path class="st0" d="M1216.3,538.3c-27.7,0-47.2-6-58.6-18c-11.4-12-17.1-28.3-17.1-48.7c0-19.8,5.4-40.6,16.2-62.2
	c11.4-22.2,25.5-43.3,42.4-63.1c10.2-12,22.8-24.6,37.9-37.9c15-13.2,31.2-25.5,48.7-37c17.4-12,34.6-21.6,51.4-28.9
	c17.4-7.8,32.8-11.7,46-11.7c7.2,0,13.8,1.8,19.8,5.4c6,3,9,9.9,9,20.7c0,15-7.2,29.5-21.6,43.3c-14.4,13.2-30.7,25.5-48.7,37
	c-20.4,13.2-41.8,24.3-64,33.4s-41.5,15.9-57.7,20.7c-9,14.4-16.2,29.2-21.6,44.2c-5.4,15-8.1,29.8-8.1,44.2
	c0,15.6,3.6,26.4,10.8,32.5c7.8,5.4,16.8,8.1,27.1,8.1c18.6,0,35.5-4.2,50.5-12.6c15.6-9,30.1-20.4,43.3-34.3
	c13.2-13.8,25.9-27.7,37.9-41.5c2.4,0,3.6,1.8,3.6,5.4c0,5.4-1.2,9.6-3.6,12.6c-12,13.8-25.2,27.7-39.7,41.5
	c-13.8,13.8-29.2,25.2-46,34.3C1257.2,534.1,1238,538.3,1216.3,538.3z M1230.8,378.7c15.6-5.4,34-12.9,55-22.5
	c21.6-9.6,40.6-20.1,56.8-31.6c3.6-2.4,9.9-7.2,18.9-14.4c9-7.8,17.4-16.2,25.2-25.2c7.8-9.6,11.7-18,11.7-25.2
	c0-9.6-4.8-14.4-14.4-14.4c-10.2,0-21.9,4.5-35.2,13.5c-12.6,9-22.8,16.8-30.7,23.4c-14.4,13.2-29.5,28-45.1,44.2
	C1257.5,342.6,1243.4,360.1,1230.8,378.7z"/>
<path class="st0" d="M920.2,532c-14.4,0-24.6-3-30.7-9c-6-6.6-9-14.7-9-24.3c0-10.2,2.4-21.3,7.2-33.4c4.8-12,10.5-24,17.1-36.1
	c11.4-19.2,25.5-38.5,42.4-57.7c17.4-19.2,35.2-37,53.2-53.2c18.6-16.2,34.9-29.8,48.7-40.6c13.2-11.4,27-20.4,41.5-27.1
	c-7.8,0.6-15.6,1.2-23.4,1.8c-7.2,0.6-14.1,1.2-20.7,1.8c-12.6,0.6-24.3,2.1-35.2,4.5c-10.2,1.8-19.8,5.4-28.9,10.8
	c3-10.2,9.3-18.6,18.9-25.2c10.2-7.2,20.4-11.1,30.7-11.7c10.2-1.2,22.8-1.2,37.9,0c15,1.2,28.9,1.8,41.5,1.8
	c3.6,0,7.8-0.3,12.6-0.9c5.4-0.6,9.6-2.1,12.6-4.5c0,6-4.5,11.1-13.5,15.3c-3.6,1.8-7.2,3.6-10.8,5.4c-3.6,1.8-6.6,3.6-9,5.4
	c-6,4.2-12,9-18,14.4c-5.4,5.4-11.1,11.1-17.1,17.1c-46.3,45.1-86.6,98-120.8,158.7c-5.4,9.6-10.2,18.9-14.4,28
	c-3.6,8.4-5.4,15.3-5.4,20.7c0,6.6,3.6,9.9,10.8,9.9c10.8,0,24.3-5.1,40.6-15.3s34-24,53.2-41.5c19.2-17.4,38.2-37.3,56.8-59.5
	c6.6-7.8,15-19.2,25.2-34.3c10.8-15,20.7-29.8,29.8-44.2c9.6-14.4,15.9-24.3,18.9-29.8c13.8-23.4,27.4-37.6,40.6-42.4
	c13.8-5.4,26.5-7.5,37.9-6.3c-4.2,6-12,15.9-23.4,29.8c-10.8,13.8-23.8,29.5-38.8,46.9c-14.4,17.4-29.2,34.9-44.2,52.3
	c-14.4,16.8-27.7,31.9-39.7,45.1c-11.4,13.2-19.5,22.5-24.3,28c-15.6,16.2-31.9,32.2-48.7,47.8c-16.2,15-33.1,27.4-50.5,37
	C954.8,527.2,937.6,532,920.2,532z"/>
<path class="st0" d="M636.6,532.9c-22.2,0-33.4-12.6-33.4-37.9c0-14.4,4.2-31.6,12.6-51.4c8.4-20.4,21-41.8,37.9-64
	c12-15,26.7-31,44.2-47.8c17.4-17.4,36.4-34,56.8-49.6c21-15.6,42.4-28.3,64-37.9c21.6-10.2,42.7-15.3,63.1-15.3
	c9,0,15.3,1.5,18.9,4.5c3.6,2.4,6,5.1,7.2,8.1c1.2,2.4,1.2,4.2,0,5.4c-0.6,1.2-1.5,1.5-2.7,0.9c-2.4-1.2-7.2-1.8-14.4-1.8
	c-21.6,0-47.5,10.5-77.5,31.6c-29.5,20.4-58.6,47.2-87.5,80.2c-20.4,22.8-37.3,45.4-50.5,67.6c-13.2,21.6-21.9,39.7-26.1,54.1
	c-1.2,4.8-1.8,9-1.8,12.6c0,8.4,3.3,12.6,9.9,12.6c4.2,0,9.9-1.8,17.1-5.4c7.2-4.2,16.5-11.1,28-20.7c18-15.6,35.8-34,53.2-55
	c18-21,35.8-42.4,53.2-64c17.4-22.2,34.3-42.7,50.5-61.3c16.8-18.6,32.8-32.8,47.8-42.4c19.2-12.6,32.5-19.8,39.7-21.6
	c7.8-1.8,14.1-3,18.9-3.6c-3,3.6-9.6,12-19.8,25.2c-10.2,13.2-21,27.4-32.5,42.4c-11.4,14.4-20.7,26.4-28,36.1
	c-10.8,15.6-22.5,32.5-35.2,50.5c-12,18-23.1,35.2-33.4,51.4c-9.6,15.6-16.2,28.6-19.8,38.8c-3,10.2-4.5,17.7-4.5,22.5
	c0,9.6,3.9,14.4,11.7,14.4c5.4,0,11.7-2.1,18.9-6.3c7.8-4.8,15.6-10.2,23.4-16.2c10.2-8.4,19.8-17.1,28.9-26.1
	c9-9.6,18.3-20.1,28-31.6c2.4,0,3.6,1.8,3.6,5.4c0,5.4-1.2,9.6-3.6,12.6c-7.8,9-17.4,18.9-28.9,29.8c-10.8,10.8-21.6,20.4-32.5,28.9
	c-7.8,6.6-16.8,12.3-27,17.1c-10.2,4.8-20.1,7.2-29.8,7.2c-13.8,0-23.4-3.3-28.9-9.9c-5.4-6.6-8.1-15-8.1-25.2
	c0-12,2.7-24.9,8.1-38.8c5.4-14.4,11.4-28,18-40.6c-7.8,9.6-17.7,21.3-29.8,35.2c-12,13.2-22.8,24.3-32.5,33.4
	c-13.2,12-25.8,22.8-37.9,32.5C662.4,528.4,649.8,532.9,636.6,532.9z"/>
<path class="st0" d="M131.6,580.7c-1.2,0-1.8-0.3-1.8-0.9s2.4-3.3,7.2-8.1c28.9-21.6,57.4-49,85.7-82.1
	c28.9-33.7,55.6-70,80.2-109.1c24.6-39.7,45.7-80.2,63.1-121.7c18-41.5,30.7-81.1,37.9-119c1.8-7.8,3-15.3,3.6-22.5
	c0.6-7.2,0.9-14.1,0.9-20.7c0-24-5.1-43-15.3-56.8C382.9,25.2,367,18,345.3,18c-26.4,0.6-53.5,8.1-81.2,22.5
	c-27.7,13.8-54.1,32.5-79.3,55.9c-25.2,23.4-48.7,49.9-70.3,79.3c-21,28.9-38.8,58.9-53.2,90.2s-24,61.3-28.9,90.2
	c-1.2,7.2-2.1,14.1-2.7,20.7c-0.6,6-0.9,11.4-0.9,16.2c0,20.4,3.9,34.6,11.7,42.4c8.4,7.2,19.2,10.8,32.5,10.8c19.2,0,40.6-6,64-18
	c24-12,48.1-28.9,72.1-50.5c24.6-21.6,47.2-46.6,67.6-74.8c20.4-28.9,37-59.8,49.6-92.9c12.6-33.7,19.2-68.2,19.8-103.7
	c0-4.8,0.9-7.2,2.7-7.2c1.8,0,3.9,2.1,6.3,6.3c2.4,4.2,3.6,8.7,3.6,13.5c0,30.1-6,61.3-18,93.8c-11.4,31.9-27.4,62.8-47.8,92.9
	c-19.8,30.1-42.1,57.1-66.7,81.2c-24.6,23.4-50.2,42.4-76.6,56.8c-26.4,13.8-51.7,20.7-75.7,20.7c-21,0-38.8-6.9-53.2-20.7
	C6.9,429.2,0,407.9,0,379.6c0-4.8,0.6-9.9,1.8-15.3c0.6-6,1.2-12,1.8-18c4.8-28.9,15-58.9,30.7-90.2c16.2-31.9,36.1-62.5,59.5-92
	c23.4-29.5,49.3-55.9,77.5-79.3c28.9-24,58.3-43,88.4-56.8c30.1-14.4,59.2-21.6,87.5-21.6c34.3,0,60.1,9.6,77.5,28.9
	c17.4,19.2,26.1,44.8,26.1,76.6c0,6-0.3,12-0.9,18c-0.6,6-1.5,12.3-2.7,18.9c-9.6,49.9-26.1,98.6-49.6,146.1
	c-22.8,47.5-50.8,91.7-83.9,132.5c25.8-27.1,52-55.9,78.4-86.6s51.7-60.7,75.7-90.2c24.6-29.5,46.3-55.9,64.9-79.3
	c24-29.5,44.2-51.4,60.4-65.8c16.8-15,31.3-22.5,43.3-22.5c12.6,0,18.9,6.6,18.9,19.8c0,10.8-3.6,24.3-10.8,40.6
	c-6.6,15.6-13.8,30.1-21.6,43.3c-7.2,13.2-12,21.9-14.4,26.1c-6.6,12-16.2,29.2-28.9,51.4c-12.6,21.6-27,45.7-43.3,72.1
	c-15.6,25.8-32.5,52-50.5,78.4c-18,26.4-35.8,50.2-53.2,71.2c27.1-24.6,57.4-54.4,91.1-89.3c33.7-35.5,66.7-72.1,99.2-110
	c26.4-31.3,55.6-63.4,87.5-96.5c31.9-33.7,64.3-64.9,97.4-93.8c33.7-28.9,66.1-52,97.4-69.4C937.1,9,966.6,0,993.6,0
	c12,0,24,1.8,36.1,5.4c12,3,21.9,9,29.8,18c7.8,8.4,11.7,20.4,11.7,36.1c0,7.8-2.7,16.2-8.1,25.2c-4.8,8.4-11.4,13.5-19.8,15.3
	c3-3,5.4-7.8,7.2-14.4c1.8-6.6,2.7-12.3,2.7-17.1c0-26.4-20.4-39.7-61.3-39.7c-26.4,0-55.3,8.4-86.6,25.2
	c-30.7,16.8-62.2,39.1-94.7,66.7c-31.9,27.7-63.1,57.4-93.8,89.3c-30.7,31.3-58.9,61.9-84.8,92c-32.5,37.3-65.2,73.3-98.3,108.2
	c-33.1,34.3-63.7,63.4-92,87.5c-28.3,24-51.7,39.7-70.3,46.9c-3.6,2.4-7.2,4.2-10.8,5.4c-3.6,1.8-6.9,2.7-9.9,2.7h-0.9
	c-4.8,0-7.2-2.1-7.2-6.3c0-3,0.6-6,1.8-9c1.8-3,3.9-6.3,6.3-9.9c17.4-24.6,35.8-50.8,55-78.4c19.8-27.7,39.7-55.3,59.5-83
	c28.3-39.7,55.6-80.2,82.1-121.7c26.4-41.5,49.9-82.4,70.3-122.6c3.6-6,5.4-11.4,5.4-16.2c0-3-1.2-4.5-3.6-4.5
	c-3.6,0-8.7,2.4-15.3,7.2c-7.8,7.2-18.3,18.9-31.6,35.2c-13.2,16.2-26.1,32.2-38.8,47.8c-20.4,24.6-43.3,52-68.5,82.1
	c-24.6,30.1-50.8,60.4-78.4,91.1c-27,30.7-54.1,59.5-81.2,86.6c-26.4,26.4-51.7,48.4-75.7,65.8c-4.2,4.2-8.7,8.4-13.5,12.6
	c-4.8,3.6-9.6,7.5-14.4,11.7c-13.2,10.8-27.1,20.1-41.5,28C146.1,576.8,136.5,580.7,131.6,580.7z"/>
<g>
	<path class="st1" d="M622.4,578C282.5,578,7.1,448.8,7.1,291.4S285.3,2,622.4,2c340,0,615.3,129.2,615.3,286.6S962.4,578,622.4,578
		z M622.4,21.7C293.7,21.7,24,142.5,24,291.4s266.9,269.7,598.4,269.7c328.7,0,598.4-120.8,598.4-269.7S953.9,21.7,622.4,21.7z"/>
</g>
<text transform="matrix(1 0 0 1 192.4756 386.8726)" class="st1 st2 st3">W</text>
<text transform="matrix(1 0 0 1 489.6387 386.8726)" class="st1 st2 st3">inE</text>
</svg>
